<svg xmlns="http://www.w3.org/2000/svg" viewBox="0 0 48 48" width="48" height="48">
  <path fill="#38B2AC" d="M24 9.5c-6.4 0-10.4 3.2-12 9.5 2.4-3.2 5.2-4.4 8.4-3.6 
    1.8.4 3 1.8 4.4 3.2 2.2 2.2 4.8 4.8 10 4.8 6.4 0 10.4-3.2 
    12-9.5-2.4 3.2-5.2 4.4-8.4 3.6-1.8-.4-3-1.8-4.4-3.2-2.2-2.2-4.8-4.8-10-4.8zm-12 
    12c-6.4 0-10.4 3.2-12 9.5 2.4-3.2 5.2-4.4 8.4-3.6 1.8.4 3 
    1.8 4.4 3.2 2.2 2.2 4.8 4.8 10 4.8 6.4 0 10.4-3.2 
    12-9.5-2.4 3.2-5.2 4.4-8.4 3.6-1.8-.4-3-1.8-4.4-3.2-2.2-2.2-4.8-4.8-10-4.8z"/>
</svg>